<?xml version="1.0" standalone="no"?><!DOCTYPE svg PUBLIC "-//W3C//DTD SVG 1.1//EN" "http://www.w3.org/Graphics/SVG/1.1/DTD/svg11.dtd"><svg width="200" height="200" viewBox="0 0 200 200" version="1.1" xmlns="http://www.w3.org/2000/svg" xmlns:xlink="http://www.w3.org/1999/xlink"><defs><style type="text/css"><![CDATA[
@font-face { font-family: ifont; src: url("http://at.alicdn.com/t/font_1442373896_4754455.eot?#iefix") format("embedded-opentype"), url("http://at.alicdn.com/t/font_1442373896_4754455.woff") format("woff"), url("http://at.alicdn.com/t/font_1442373896_4754455.ttf") format("truetype"), url("http://at.alicdn.com/t/font_1442373896_4754455.svg#ifont") format("svg"); }

]]></style></defs><g class="transform-group"><g transform="scale(0.1953125, 0.1953125)"><path d="M176.763 576.001v274.285q0 14.856 10.858 25.714t25.714 10.858h219.429v-219.429h146.286v219.429h219.429q14.856 0 25.714-10.858t10.858-25.714v-274.285q0-0.571-0.286-1.714t-0.286-1.714l-328.571-270.857-328.571 270.857q-0.571 1.143-0.571 3.429zM49.334 536.573l35.429 42.286q4.571 5.143 12 6.286h1.714q7.429 0 12-4l395.43-329.714 395.43 329.714q6.857 4.571 13.714 4 7.429-1.143 12-6.286l35.429-42.286q4.571-5.714 4-13.429t-6.285-12.286l-410.857-342.286q-18.286-14.857-43.428-14.857t-43.428 14.857l-139.429 116.571v-111.429q0-8-5.143-13.143t-13.143-5.143h-109.715q-8 0-13.143 5.143t-5.143 13.143v233.143l-125.143 104.001q-5.714 4.571-6.285 12.286t4 13.429z" fill="#272636"></path></g></g></svg>